<?xml version="1.0" encoding="UTF-8"?>
<!--Generator: Apple Native CoreSVG 341-->
<!DOCTYPE svg
PUBLIC "-//W3C//DTD SVG 1.1//EN"
       "http://www.w3.org/Graphics/SVG/1.1/DTD/svg11.dtd">
<svg version="1.1" xmlns="http://www.w3.org/2000/svg" xmlns:xlink="http://www.w3.org/1999/xlink" viewBox="0 0 27.9844 21.5742">
 <g>
  <rect height="21.5742" opacity="0" width="27.9844" x="0" y="0"/>
  <path d="M16.8984 20.0625L18.7383 20.0625L18.7383 1.54688L16.8984 1.54688ZM4.94531 21.5742L22.9805 21.5742C25.9336 21.5742 27.6328 19.793 27.6328 16.6289L27.6328 4.95703C27.6328 1.79297 25.9336 0 22.9805 0L4.94531 0C1.79297 0 0 1.79297 0 4.95703L0 16.6289C0 19.793 1.79297 21.5742 4.94531 21.5742ZM4.95703 19.6875C3.01172 19.6875 1.88672 18.5742 1.88672 16.6289L1.88672 4.95703C1.88672 3.01172 3.01172 1.88672 4.95703 1.88672L22.6758 1.88672C24.6211 1.88672 25.7461 3.01172 25.7461 4.95703L25.7461 16.6289C25.7461 18.5742 24.6211 19.6875 22.6758 19.6875ZM20.9883 6.24609L23.4961 6.24609C23.8594 6.24609 24.1641 5.92969 24.1641 5.58984C24.1641 5.23828 23.8594 4.93359 23.4961 4.93359L20.9883 4.93359C20.6367 4.93359 20.3203 5.23828 20.3203 5.58984C20.3203 5.92969 20.6367 6.24609 20.9883 6.24609ZM20.9883 9.28125L23.4961 9.28125C23.8594 9.28125 24.1641 8.96484 24.1641 8.61328C24.1641 8.26172 23.8594 7.96875 23.4961 7.96875L20.9883 7.96875C20.6367 7.96875 20.3203 8.26172 20.3203 8.61328C20.3203 8.96484 20.6367 9.28125 20.9883 9.28125ZM20.9883 12.3047L23.4961 12.3047C23.8594 12.3047 24.1641 12.0117 24.1641 11.6602C24.1641 11.3086 23.8594 11.0039 23.4961 11.0039L20.9883 11.0039C20.6367 11.0039 20.3203 11.3086 20.3203 11.6602C20.3203 12.0117 20.6367 12.3047 20.9883 12.3047Z" fill="white" fill-opacity="0.85"/>
 </g>
</svg>
