<?xml version="1.0" encoding="UTF-8"?>
<!--Generator: Apple Native CoreSVG 341-->
<!DOCTYPE svg
PUBLIC "-//W3C//DTD SVG 1.1//EN"
       "http://www.w3.org/Graphics/SVG/1.1/DTD/svg11.dtd">
<svg version="1.1" xmlns="http://www.w3.org/2000/svg" xmlns:xlink="http://www.w3.org/1999/xlink" viewBox="0 0 24.2578 23.918">
 <g>
  <rect height="23.918" opacity="0" width="24.2578" x="0" y="0"/>
  <path d="M11.9531 23.9062C18.5508 23.9062 23.9062 18.5508 23.9062 11.9531C23.9062 5.35547 18.5508 0 11.9531 0C5.35547 0 0 5.35547 0 11.9531C0 18.5508 5.35547 23.9062 11.9531 23.9062ZM11.9531 21.9141C6.44531 21.9141 1.99219 17.4609 1.99219 11.9531C1.99219 6.44531 6.44531 1.99219 11.9531 1.99219C17.4609 1.99219 21.9141 6.44531 21.9141 11.9531C21.9141 17.4609 17.4609 21.9141 11.9531 21.9141Z" fill="white" fill-opacity="0.85"/>
  <path d="M11.9531 17.8594C12.457 17.8594 12.8906 17.4492 12.8906 16.957L12.8906 10.3594L12.7969 7.92188C12.7852 7.39453 12.375 7.11328 11.9531 7.11328C11.5312 7.11328 11.1328 7.39453 11.1094 7.92188L11.0273 10.3594L11.0273 16.957C11.0273 17.4492 11.4492 17.8594 11.9531 17.8594ZM11.9531 6.04688C11.7188 6.04688 11.5078 6.11719 11.2734 6.35156L7.40625 10.0781C7.23047 10.2539 7.13672 10.4414 7.13672 10.6992C7.13672 11.168 7.48828 11.5195 7.98047 11.5195C8.20312 11.5195 8.46094 11.4258 8.625 11.2383L10.4062 9.32812L11.9531 7.69922L11.9531 7.69922L13.5 9.32812L15.2812 11.2383C15.4453 11.4258 15.6914 11.5195 15.9141 11.5195C16.4062 11.5195 16.7695 11.168 16.7695 10.6992C16.7695 10.4414 16.6758 10.2539 16.4883 10.0781L12.6328 6.35156C12.3984 6.11719 12.1875 6.04688 11.9531 6.04688Z" fill="white" fill-opacity="0.85"/>
 </g>
</svg>
