<?xml version="1.0" encoding="UTF-8"?>
<!--Generator: Apple Native CoreSVG 326-->
<!DOCTYPE svg
PUBLIC "-//W3C//DTD SVG 1.1//EN"
       "http://www.w3.org/Graphics/SVG/1.1/DTD/svg11.dtd">
<svg version="1.1" xmlns="http://www.w3.org/2000/svg" xmlns:xlink="http://www.w3.org/1999/xlink" viewBox="0 0 52.1719 51.1226">
 <g>
  <rect height="51.1226" opacity="0" width="52.1719" x="0" y="0"/>
  <path d="M25.8984 47.9558C26.4844 47.9558 27.0469 47.9324 27.6094 47.8855L28.8984 50.2996C29.2031 50.909 29.7422 51.1433 30.3984 51.073C31.0781 50.9558 31.4766 50.5105 31.5469 49.8543L31.9453 47.1355C33.0703 46.8308 34.125 46.4324 35.1562 45.9637L37.1719 47.7918C37.6641 48.2605 38.2734 48.284 38.8594 47.9793C39.4453 47.6512 39.6797 47.0887 39.5391 46.4324L38.9531 43.7605C39.8906 43.1043 40.7578 42.3543 41.5781 41.5808L44.0859 42.6121C44.7188 42.8465 45.3047 42.7058 45.75 42.1902C46.1953 41.6746 46.2422 41.0887 45.8672 40.5027L44.4141 38.2058C45.0469 37.2449 45.6094 36.2605 46.125 35.2527L48.8203 35.3465C49.5 35.3699 50.0156 35.0418 50.25 34.3855C50.4844 33.7762 50.3203 33.1902 49.7812 32.7918L47.6016 31.1277C47.9062 30.0262 48.0938 28.9012 48.2109 27.7293L50.7891 26.909C51.4453 26.698 51.8203 26.2293 51.8203 25.5496C51.8203 24.8699 51.4453 24.3777 50.7891 24.1902L48.2109 23.3699C48.0938 22.198 47.9062 21.073 47.6016 19.9715L49.7578 18.3074C50.3203 17.909 50.4609 17.323 50.25 16.6902C50.0156 16.034 49.5 15.7293 48.8203 15.7527L46.125 15.823C45.6094 14.8152 45.0469 13.8074 44.4141 12.8699L45.8438 10.5965C46.2188 10.0105 46.1719 9.40116 45.7734 8.88553C45.3047 8.36991 44.7188 8.25272 44.1094 8.48709L41.5781 9.51834C40.7578 8.69803 39.8672 7.97147 38.9531 7.31522L39.5391 4.66678C39.6797 3.98709 39.4453 3.44803 38.8828 3.11991C38.2734 2.76834 37.6641 2.86209 37.1719 3.30741L35.1328 5.11209C34.125 4.64334 33.0469 4.26834 31.9219 3.94022L31.5469 1.24491C31.4766 0.588656 31.0547 0.166781 30.4219 0.0261564C29.7422-0.0910311 29.2031 0.190219 28.8984 0.776156L27.6094 3.19022C27.0469 3.16678 26.4844 3.14334 25.8984 3.14334C25.3359 3.14334 24.7734 3.16678 24.1875 3.19022L22.9219 0.799594C22.5938 0.190219 22.0547-0.0675936 21.4219 0.0261564C20.7422 0.143344 20.3438 0.588656 20.25 1.24491L19.8516 3.94022C18.75 4.26834 17.6719 4.66678 16.6406 5.13553L14.6484 3.30741C14.1562 2.83866 13.5469 2.79178 12.9375 3.11991C12.3516 3.44803 12.1406 4.01053 12.2812 4.66678L12.8438 7.33866C11.9062 7.99491 11.0391 8.72147 10.2188 9.51834L7.71094 8.48709C7.10156 8.22928 6.49219 8.39334 6.04688 8.90897C5.60156 9.40116 5.57812 10.0105 5.95312 10.5965L7.40625 12.8933C6.75 13.8308 6.1875 14.8387 5.69531 15.8465L3 15.7527C2.29688 15.7058 1.80469 16.0574 1.57031 16.6902C1.3125 17.323 1.5 17.909 2.03906 18.3074L4.19531 19.9715C3.91406 21.073 3.70312 22.198 3.60938 23.3699L1.00781 24.1902C0.351562 24.3777 0 24.8699 0 25.5496C0 26.2293 0.351562 26.698 1.00781 26.909L3.60938 27.7293C3.70312 28.9012 3.91406 30.0262 4.19531 31.1277L2.03906 32.7918C1.5 33.1902 1.35938 33.7762 1.54688 34.409C1.80469 35.0652 2.29688 35.3699 2.97656 35.3465L5.69531 35.2527C6.1875 36.284 6.75 37.2683 7.40625 38.2293L5.95312 40.5027C5.57812 41.0887 5.64844 41.698 6.04688 42.1902C6.51562 42.7293 7.10156 42.8465 7.71094 42.6121L10.2188 41.5574C11.0391 42.3777 11.9297 43.1043 12.8438 43.784L12.2812 46.4324C12.1406 47.0887 12.375 47.6512 12.9375 47.9793C13.5469 48.3308 14.1562 48.2605 14.625 47.7918L16.6641 45.9637C17.6953 46.4558 18.7734 46.8308 19.875 47.1355L20.25 49.8308C20.3438 50.5105 20.7656 50.9324 21.3984 51.073C22.0781 51.1902 22.5938 50.909 22.9219 50.2996L24.1875 47.8855C24.7734 47.9324 25.3359 47.9558 25.8984 47.9558ZM25.8984 44.0652C15.6797 44.0652 7.38281 35.7683 7.38281 25.5496C7.38281 15.3074 15.6797 7.03397 25.8984 7.03397C36.1406 7.03397 44.4141 15.3074 44.4141 25.5496C44.4141 35.7683 36.1406 44.0652 25.8984 44.0652ZM21.8203 21.9637L24.5859 20.2058L16.7578 6.77616L13.875 8.39334ZM31.125 27.1433L46.7109 27.1433L46.7109 23.909L31.125 23.909ZM24.6328 30.9637L21.8906 29.1824L13.6406 42.6355L16.5 44.323ZM25.9219 31.6902C29.3203 31.6902 32.0625 28.948 32.0625 25.5496C32.0625 22.1512 29.3203 19.409 25.9219 19.409C22.5234 19.409 19.7812 22.1512 19.7812 25.5496C19.7812 28.948 22.5234 31.6902 25.9219 31.6902ZM25.9219 28.1746C24.4688 28.1746 23.2969 27.0027 23.2969 25.5496C23.2969 24.0965 24.4688 22.9246 25.9219 22.9246C27.375 22.9246 28.5469 24.0965 28.5469 25.5496C28.5469 27.0027 27.375 28.1746 25.9219 28.1746Z" fill="white" fill-opacity="0.85"/>
 </g>
</svg>
