<?xml version="1.0" encoding="UTF-8"?>
<!--Generator: Apple Native CoreSVG 326-->
<!DOCTYPE svg
PUBLIC "-//W3C//DTD SVG 1.1//EN"
       "http://www.w3.org/Graphics/SVG/1.1/DTD/svg11.dtd">
<svg version="1.1" xmlns="http://www.w3.org/2000/svg" xmlns:xlink="http://www.w3.org/1999/xlink" viewBox="0 0 30.5508 25.1367">
 <g>
  <rect height="25.1367" opacity="0" width="30.5508" x="0" y="0"/>
  <path d="M21.1992 3.67969L21.1992 9.43359L19.3125 9.43359L19.3125 3.71484C19.3125 2.54297 18.6914 1.88672 17.4727 1.88672L5.22656 1.88672C4.00781 1.88672 3.375 2.54297 3.375 3.71484L3.375 21.4219C3.375 22.5938 4.00781 23.2383 5.22656 23.2383L17.4727 23.2383C18.6914 23.2383 19.3125 22.5938 19.3125 21.4219L19.3125 15.6914L21.1992 15.6914L21.1992 21.457C21.1992 23.9062 19.9922 25.125 17.5664 25.125L5.12109 25.125C2.70703 25.125 1.48828 23.9062 1.48828 21.457L1.48828 3.67969C1.48828 1.24219 2.70703 0 5.12109 0L17.5664 0C19.9922 0 21.1992 1.24219 21.1992 3.67969Z" fill="white" fill-opacity="0.85"/>
  <path d="M11.5547 12.5625C11.5547 13.0664 11.9648 13.4883 12.457 13.4883L24.3867 13.4883L26.1328 13.418L25.4414 14.0742L23.5078 15.8906C23.3203 16.0547 23.2266 16.3008 23.2266 16.5234C23.2266 17.0039 23.5781 17.3789 24.0586 17.3789C24.3047 17.3789 24.4922 17.2734 24.668 17.0977L28.3945 13.2422C28.6289 13.0078 28.7109 12.7969 28.7109 12.5625C28.7109 12.3164 28.6289 12.1172 28.3945 11.8828L24.668 8.01562C24.4922 7.83984 24.3047 7.74609 24.0586 7.74609C23.5781 7.74609 23.2266 8.09766 23.2266 8.58984C23.2266 8.8125 23.3203 9.07031 23.5078 9.23438L25.4414 11.0391L26.1445 11.707L24.3867 11.625L12.457 11.625C11.9648 11.625 11.5547 12.0586 11.5547 12.5625Z" fill="white" fill-opacity="0.85"/>
 </g>
</svg>
