<?xml version="1.0" encoding="UTF-8"?>
<!--Generator: Apple Native CoreSVG 341-->
<!DOCTYPE svg
PUBLIC "-//W3C//DTD SVG 1.1//EN"
       "http://www.w3.org/Graphics/SVG/1.1/DTD/svg11.dtd">
<svg version="1.1" xmlns="http://www.w3.org/2000/svg" xmlns:xlink="http://www.w3.org/1999/xlink" viewBox="0 0 27.9844 21.5742">
 <g>
  <rect height="21.5742" opacity="0" width="27.9844" x="0" y="0"/>
  <path d="M8.92969 20.0625L10.7695 20.0625L10.7695 1.54688L8.92969 1.54688ZM4.94531 21.5742L22.9805 21.5742C25.9336 21.5742 27.6328 19.793 27.6328 16.6289L27.6328 4.95703C27.6328 1.79297 25.9336 0 22.9805 0L4.94531 0C1.79297 0 0 1.79297 0 4.95703L0 16.6289C0 19.793 1.79297 21.5742 4.94531 21.5742ZM4.95703 19.6875C3.01172 19.6875 1.88672 18.5742 1.88672 16.6289L1.88672 4.95703C1.88672 3.01172 3.01172 1.88672 4.95703 1.88672L22.6758 1.88672C24.6211 1.88672 25.7461 3.01172 25.7461 4.95703L25.7461 16.6289C25.7461 18.5742 24.6211 19.6875 22.6758 19.6875ZM6.67969 6.24609C7.03125 6.24609 7.34766 5.92969 7.34766 5.58984C7.34766 5.23828 7.03125 4.93359 6.67969 4.93359L4.16016 4.93359C3.80859 4.93359 3.50391 5.23828 3.50391 5.58984C3.50391 5.92969 3.80859 6.24609 4.16016 6.24609ZM6.67969 9.28125C7.03125 9.28125 7.34766 8.96484 7.34766 8.61328C7.34766 8.26172 7.03125 7.96875 6.67969 7.96875L4.16016 7.96875C3.80859 7.96875 3.50391 8.26172 3.50391 8.61328C3.50391 8.96484 3.80859 9.28125 4.16016 9.28125ZM6.67969 12.3047C7.03125 12.3047 7.34766 12.0117 7.34766 11.6602C7.34766 11.3086 7.03125 11.0039 6.67969 11.0039L4.16016 11.0039C3.80859 11.0039 3.50391 11.3086 3.50391 11.6602C3.50391 12.0117 3.80859 12.3047 4.16016 12.3047Z" fill="white" fill-opacity="0.85"/>
 </g>
</svg>
